<?xml version="1.0" encoding="utf-8"?>
<!-- Generator: Adobe Illustrator 23.0.6, SVG Export Plug-In . SVG Version: 6.00 Build 0)  -->
<svg version="1.1" id="Layer_1" xmlns="http://www.w3.org/2000/svg" xmlns:xlink="http://www.w3.org/1999/xlink" x="0px" y="0px"
	 viewBox="0 0 37.5 43.7" style="enable-background:new 0 0 37.5 43.7;" xml:space="preserve">
<style type="text/css">
	.st0{fill:#181617;}
</style>
<g>
	<path class="st0" d="M31.1,22c0,1-0.4,1.9-1.3,2.7c-6.1,5.3-12.3,10.7-18.4,16c-1.5,1.3-3.5,1.2-4.8-0.3c-1.3-1.5-1.1-3.5,0.4-4.8
		c5.1-4.4,10.2-8.9,15.3-13.3c0.1-0.1,0.2-0.2,0.2-0.2c0.3-0.2,0.3-0.3,0-0.6c-1.9-1.5-3.7-3.1-5.6-4.6C13.5,14,10,11.1,6.4,8.1
		C5.3,7.2,4.9,5.8,5.4,4.5c0.4-1.3,1.7-2.3,3.1-2.3c0.8,0,1.6,0.2,2.2,0.8c4,3.3,8.1,6.7,12.1,10c2.2,1.8,4.4,3.7,6.7,5.5
		C30.6,19.4,31,20.5,31.1,22z"/>
</g>
</svg>
