<?xml version="1.0" encoding="utf-8"?>
<!-- Generator: Adobe Illustrator 23.0.6, SVG Export Plug-In . SVG Version: 6.00 Build 0)  -->
<svg version="1.1" id="Layer_1" xmlns="http://www.w3.org/2000/svg" xmlns:xlink="http://www.w3.org/1999/xlink" x="0px" y="0px"
	 viewBox="0 0 233.8 43.7" style="enable-background:new 0 0 233.8 43.7;" xml:space="preserve">
<style type="text/css">
	.st0{fill:#010101;}
</style>
<g>
	<path class="st0" d="M57.6,42.2c-0.1-0.2,0.1-0.4,0.1-0.6c1.5-4.8,3-9.5,4.6-14.3c0.2-0.6,0.1-0.5-0.3-0.8
		c-3.5-2.6-7.1-5.2-10.6-7.7c-0.7-0.5-1.3-1-2-1.5c-0.1-0.1-0.2-0.1-0.3-0.3c0.2,0,0.4,0,0.5,0c5,0,10.1,0,15.1,0c0.1,0,0.2,0,0.3,0
		c0.4,0,0.4,0,0.6-0.4c1-3,2-6.1,2.9-9.1c0.6-1.8,1.1-3.5,1.7-5.3c0.1-0.2,0.1-0.3,0.2-0.5c0.2,0.1,0.2,0.3,0.2,0.5
		c1.5,4.8,3.1,9.5,4.6,14.3c0,0.1,0,0.1,0.1,0.2C75.6,17,75.6,17,76,17c1.6,0,3.2,0,4.7,0c3.6,0,7.2,0,10.8,0c0.2,0,0.4,0,0.6,0
		c-0.1,0.2-0.3,0.3-0.4,0.4c-4.1,3-8.3,6-12.4,9c-0.1,0-0.1,0.1-0.2,0.1c-0.4,0.3-0.4,0.3-0.2,0.7c1.2,3.7,2.4,7.5,3.6,11.2
		c0.4,1.1,0.7,2.3,1.1,3.4c0,0.1,0.1,0.2,0,0.3c-0.2,0-0.3-0.2-0.4-0.3c-4-2.9-8-5.8-12-8.8c-0.1-0.1-0.2-0.1-0.3-0.2
		c-0.2-0.2-0.3-0.1-0.5,0c-0.8,0.6-1.6,1.2-2.4,1.7c-3.3,2.4-6.6,4.8-9.9,7.3C57.9,42,57.8,42.1,57.6,42.2z"/>
	<path class="st0" d="M130.2,42.1c-0.2,0-0.3-0.2-0.4-0.3c-4-2.9-8.1-5.9-12.1-8.8c-0.4-0.3-0.4-0.3-0.8,0c-4,2.9-8.1,5.9-12.1,8.8
		c-0.1,0.1-0.3,0.2-0.4,0.3c-0.1-0.2,0-0.4,0.1-0.6c1.5-4.8,3.1-9.5,4.6-14.3c0.2-0.6,0.1-0.5-0.2-0.8c-4.1-3-8.3-6.1-12.4-9.1
		c-0.2-0.1-0.3-0.3-0.5-0.4c0.2-0.1,0.4-0.1,0.5-0.1c5.1,0,10.1,0,15.2,0c0.1,0,0.2,0,0.3,0c0.4,0,0.4,0,0.6-0.4
		c1.5-4.8,3.1-9.6,4.6-14.4c0-0.2,0.1-0.3,0.2-0.5c0.2,0.1,0.2,0.3,0.2,0.4c1.3,4.2,2.7,8.3,4,12.5c0.2,0.7,0.5,1.4,0.7,2.1
		c0.1,0.2,0.2,0.3,0.4,0.3c0.1,0,0.3,0,0.4,0c5.1,0,10.2,0,15.2,0c0.2,0,0.4,0,0.6,0c-0.1,0.2-0.2,0.3-0.4,0.4
		c-3.6,2.6-7.2,5.2-10.8,7.9c-0.6,0.4-1.2,0.9-1.8,1.3c-0.4,0.3-0.4,0.3-0.3,0.8c0.8,2.5,1.6,4.9,2.4,7.4c0.7,2.3,1.5,4.7,2.2,7
		C130.1,41.9,130.2,42,130.2,42.1z"/>
	<path class="st0" d="M185.3,17c-0.2,0.3-0.4,0.4-0.6,0.5c-4.1,3-8.3,6-12.4,9c-0.4,0.3-0.4,0.3-0.3,0.8c1.5,4.8,3.1,9.5,4.6,14.3
		c0,0.2,0.1,0.3,0.1,0.5c-0.2,0-0.3-0.1-0.4-0.2c-4-2.9-8-5.9-12-8.8c-0.6-0.4-0.4-0.4-1,0c-4,2.9-8,5.9-12,8.8
		c-0.1,0.1-0.2,0.2-0.5,0.3c0.1-0.2,0.1-0.4,0.2-0.5c1.5-4.7,3-9.3,4.5-14c0-0.1,0.1-0.3,0.1-0.4c0.1-0.4,0.1-0.4-0.2-0.7
		c-1.1-0.8-2.3-1.6-3.4-2.5c-3.1-2.2-6.2-4.5-9.2-6.7c-0.1-0.1-0.3-0.2-0.4-0.4c0.2-0.1,0.4,0,0.6,0c5.1,0,10.2,0,15.3,0
		c0.7,0,0.6,0.1,0.8-0.6c1.5-4.8,3-9.5,4.6-14.3c0-0.2,0.1-0.3,0.2-0.5c0.1,0.2,0.2,0.3,0.2,0.5c1.5,4.8,3.1,9.6,4.6,14.4
		c0.2,0.5,0.2,0.5,0.7,0.5c5.1,0,10.3,0,15.4,0C184.9,17,185.1,17,185.3,17z"/>
	<path class="st0" d="M197.4,42.1c-0.1-0.2,0-0.3,0.1-0.5c1.5-4.7,3-9.5,4.5-14.2c0.2-0.8,0.3-0.6-0.3-1c-4.1-3-8.2-6-12.3-9
		c-0.2-0.1-0.4-0.2-0.6-0.5c0.2,0,0.4,0,0.6,0c5.1,0,10.2,0,15.2,0c0.1,0,0.2,0,0.3,0c0.4,0,0.4,0,0.6-0.4c0.6-1.7,1.1-3.5,1.7-5.2
		c1-3.1,2-6.2,3-9.3c0-0.1,0.1-0.3,0.1-0.4c0.2,0.1,0.2,0.3,0.2,0.4c1.5,4.6,3,9.2,4.4,13.8c0.1,0.3,0.2,0.5,0.2,0.8
		c0.1,0.2,0.2,0.3,0.4,0.3c0.1,0,0.2,0,0.3,0c5.1,0,10.2,0,15.2,0c0.2,0,0.4,0,0.6,0c-0.1,0.2-0.3,0.3-0.4,0.4
		c-3.6,2.6-7.2,5.2-10.7,7.8c-0.6,0.5-1.2,0.9-1.9,1.4c-0.4,0.3-0.4,0.3-0.2,0.7c0.8,2.4,1.5,4.8,2.3,7.2c0.7,2.3,1.5,4.6,2.2,6.9
		c0.1,0.2,0.2,0.4,0.1,0.6c-0.2,0-0.3-0.1-0.5-0.3c-4-2.9-8-5.8-12-8.7c-0.6-0.4-0.4-0.5-1,0c-4,2.9-8,5.8-12,8.7
		C197.8,42,197.6,42.1,197.4,42.1z"/>
	<path class="st0" d="M2.5,17c0.2,0,0.3,0,0.5,0c5.1,0,10.2,0,15.3,0c0.1,0,0.2,0,0.3,0c0.3,0,0.4-0.1,0.5-0.4
		c0.3-0.9,0.6-1.8,0.8-2.7c1-3.2,2-6.3,3-9.5c0-0.1,0.1-0.2,0.1-0.3c0.1-0.2,0.2-0.3,0.4-0.2c0,0,0.1,0,0.1,0
		c1.2,0.2,1.2,0.2,1.6,1.3c1.2,3.8,2.4,7.5,3.6,11.3C29,17,28.9,17,29.5,17c5.1,0,10.3,0,15.4,0c0.2,0,0.4,0,0.6,0
		c-0.1,0.2-0.2,0.3-0.4,0.4c-3.3,2.4-6.6,4.8-9.9,7.3c-0.9,0.7-1.8,1.3-2.7,2c-0.3,0.2-0.3,0.3-0.2,0.7c1.2,3.9,2.5,7.7,3.7,11.6
		c0.3,1,0.6,2,1,3c0,0.1,0,0.2,0.1,0.2c-0.2,0-0.3-0.1-0.5-0.2c-4-2.9-8-5.8-12-8.8c-0.1-0.1-0.2-0.1-0.2-0.2
		c-0.2-0.2-0.3-0.2-0.5,0c-0.5,0.4-1,0.7-1.5,1.1c-3.6,2.6-7.2,5.3-10.8,7.9c-0.1,0.1-0.2,0.2-0.4,0.2c-0.1-0.2,0-0.3,0.1-0.5
		c0.8-2.4,1.6-4.9,2.3-7.3c0.7-2.3,1.5-4.7,2.2-7c0.2-0.5,0.2-0.4-0.3-0.8c-4.1-3-8.3-6.1-12.4-9.1c-0.2-0.1-0.3-0.3-0.5-0.4
		C2.5,17,2.5,17,2.5,17z"/>
</g>
</svg>
